<svg xmlns="http://www.w3.org/2000/svg" width="346.667" height="346.667" preserveAspectRatio="xMidYMid meet" version="1.0" viewBox="0 0 260 260"><metadata>Created by potrace 1.14, written by Peter Selinger 2001-2017</metadata><g fill="#000" stroke="none"><path d="M0 1300 l0 -1300 1300 0 1300 0 0 1300 0 1300 -1300 0 -1300 0 0 -1300z m770 921 c28 -11 59 -17 70 -14 22 6 52 -23 104 -101 19 -28 46 -62 60 -75 14 -13 35 -49 47 -80 11 -31 33 -76 49 -101 31 -50 50 -108 50 -158 0 -18 9 -57 19 -88 27 -74 38 -301 22 -449 -6 -60 -14 -134 -17 -164 -5 -44 -12 -60 -35 -80 -26 -23 -29 -32 -29 -86 0 -44 -6 -69 -22 -95 -12 -19 -34 -60 -49 -90 -31 -63 -52 -91 -129 -173 -41 -44 -59 -57 -75 -53 -12 3 -42 -5 -70 -19 -26 -14 -58 -25 -69 -25 -44 1 -172 41 -186 59 -8 10 -29 26 -46 35 -43 21 -47 47 -16 90 36 52 42 48 68 -38 8 -25 17 -32 59 -43 95 -25 261 -7 287 31 4 6 8 23 8 37 0 15 17 46 43 76 76 91 116 152 123 187 3 19 21 52 39 73 27 32 33 48 38 103 2 36 13 99 22 140 24 107 15 443 -15 498 -48 92 -78 160 -85 190 -4 18 -24 61 -44 95 -32 51 -46 65 -86 82 l-47 20 -24 -28 c-12 -15 -27 -27 -33 -27 -5 0 -11 -5 -13 -12 -2 -6 -11 -12 -19 -14 -83 -15 -91 -15 -115 1 -14 9 -24 25 -24 39 0 37 12 43 125 63 17 3 35 12 42 21 10 12 15 13 28 2 9 -7 13 -21 10 -31 -4 -11 -3 -19 2 -19 20 1 29 18 32 59 2 42 1 43 -24 38 -15 -2 -39 1 -53 7 -25 11 -76 13 -215 8 -51 -2 -63 -6 -88 -33 -49 -52 -108 -149 -115 -187 -3 -20 -17 -53 -29 -72 -13 -19 -35 -78 -50 -130 -15 -52 -32 -104 -38 -115 -32 -60 -39 -80 -40 -128 -1 -69 9 -94 38 -101 31 -8 32 -25 3 -61 -17 -22 -23 -45 -26 -110 -4 -80 -4 -83 24 -109 16 -14 34 -26 41 -26 7 0 13 -4 13 -10 0 -5 -6 -10 -13 -10 -18 0 -64 -50 -69 -75 -2 -11 -10 -20 -18 -20 -11 0 -17 19 -22 80 -4 44 -11 97 -16 117 -14 56 -4 389 15 488 17 88 75 254 120 343 46 91 121 194 159 218 70 44 79 49 104 50 14 0 34 4 45 9 34 15 103 11 155 -9z m-258 -284 c9 -42 -4 -77 -27 -77 -30 0 -45 63 -24 101 16 31 42 19 51 -24z m438 -166 c15 -29 12 -39 -12 -43 -28 -4 -32 -23 -23 -105 5 -47 12 -69 28 -84 24 -22 24 -19 12 -236 -6 -99 -4 -116 14 -158 11 -25 23 -78 27 -118 6 -68 5 -76 -27 -137 -18 -36 -44 -78 -56 -93 -13 -16 -23 -36 -23 -46 0 -9 -6 -26 -14 -36 -11 -16 -18 -17 -42 -8 -16 6 -42 14 -57 18 -24 5 -27 8 -17 20 7 8 18 15 25 15 7 0 36 12 63 26 43 22 50 30 56 64 3 20 13 43 22 51 17 14 17 9 -5 209 -4 36 -12 75 -19 87 -9 16 -9 29 -1 53 15 42 -1 77 -38 86 -47 10 -53 13 -59 29 -9 24 15 45 52 45 40 0 64 29 64 77 0 41 -18 51 -78 43 -26 -3 -90 -4 -142 -3 -52 2 -136 4 -187 5 -51 2 -97 8 -103 14 -12 12 -17 175 -5 193 5 9 11 9 19 1 7 -5 24 -9 37 -9 13 1 114 3 224 5 110 1 205 3 211 3 7 1 15 12 18 26 8 30 21 32 36 6z m40 -80 c13 -25 13 -68 -1 -76 -14 -9 -16 -7 -21 48 -6 49 4 61 22 28z m86 -213 c-2 -40 -5 -79 -5 -85 -1 -7 -6 -13 -12 -13 -10 0 -3 143 8 163 11 18 13 2 9 -65z m-698 1 c2 -17 -6 -35 -25 -55 l-28 -29 -3 34 c-6 55 5 83 31 79 15 -2 23 -11 25 -29z m324 -88 c31 -27 33 -33 31 -88 -2 -50 -6 -61 -29 -82 -25 -21 -34 -23 -86 -17 -190 20 -174 21 -192 -5 -13 -19 -23 -78 -13 -79 1 -1 38 -7 82 -15 112 -20 185 -19 258 6 l61 21 18 -22 c22 -27 38 -83 38 -132 0 -25 -8 -46 -27 -69 l-27 -32 -111 8 c-60 4 -146 8 -190 9 -44 1 -90 8 -102 14 -20 11 -21 17 -16 107 l6 95 -37 0 c-36 0 -36 1 -36 41 0 45 14 79 34 79 18 0 36 44 36 88 0 49 19 85 50 93 14 4 69 7 122 8 94 1 99 0 130 -28z m-335 -488 c14 -18 8 -40 -22 -73 -47 -52 -45 -111 4 -128 23 -8 32 -20 41 -51 13 -49 4 -91 -20 -91 -27 0 -48 31 -60 87 -6 28 -20 59 -31 69 -24 21 -43 88 -34 123 7 33 73 91 94 84 9 -3 21 -12 28 -20z m73 -154 c0 -5 -4 -9 -10 -9 -5 0 -10 7 -10 16 0 8 5 12 10 9 6 -3 10 -10 10 -16z m153 10 c26 -7 37 -15 37 -29 0 -17 -7 -20 -55 -20 -57 0 -74 12 -61 45 6 18 27 19 79 4z" transform="translate(0.000000,260.000000) scale(0.100000,-0.100000)"/></g></svg>